<svg width="1200" height="360" viewBox="0 0 1200 360" xmlns="http://www.w3.org/2000/svg" role="img" aria-label="Dry Spell Risk Prediction">
  <defs>
    <!-- Background -->
    <linearGradient id="bg" x1="0" y1="0" x2="1" y2="1">
      <stop offset="0%" stop-color="#f8f1e6"/>
      <stop offset="55%" stop-color="#e9f1fb"/>
      <stop offset="100%" stop-color="#dfe9f4"/>
    </linearGradient>

    <!-- Sun -->
    <radialGradient id="sun" cx="35%" cy="35%" r="70%">
      <stop offset="0%" stop-color="#ffe2a8"/>
      <stop offset="55%" stop-color="#f7b55a"/>
      <stop offset="100%" stop-color="#e07a2f"/>
    </radialGradient>

    <!-- Glass highlight -->
    <linearGradient id="glass" x1="0" y1="0" x2="0" y2="1">
      <stop offset="0%" stop-color="#ffffff" stop-opacity="0.75"/>
      <stop offset="100%" stop-color="#ffffff" stop-opacity="0.12"/>
    </linearGradient>

    <!-- Terrain -->
    <linearGradient id="sand" x1="0" y1="0" x2="1" y2="0">
      <stop offset="0%" stop-color="#e7c9a6"/>
      <stop offset="55%" stop-color="#ddb58e"/>
      <stop offset="100%" stop-color="#d2a77f"/>
    </linearGradient>
    <linearGradient id="ridge" x1="0" y1="0" x2="0" y2="1">
      <stop offset="0%" stop-color="#cfa075"/>
      <stop offset="100%" stop-color="#b9855c"/>
    </linearGradient>

    <!-- Accent -->
    <linearGradient id="accent" x1="0" y1="0" x2="1" y2="0">
      <stop offset="0%" stop-color="#2b6cb0"/>
      <stop offset="100%" stop-color="#2f855a"/>
    </linearGradient>

    <!-- Soft shadow -->
    <filter id="shadow" x="-20%" y="-20%" width="140%" height="140%">
      <feDropShadow dx="0" dy="10" stdDeviation="10" flood-color="#000000" flood-opacity="0.16"/>
    </filter>

    <!-- Subtle blur for haze -->
    <filter id="haze" x="-20%" y="-20%" width="140%" height="140%">
      <feGaussianBlur stdDeviation="6"/>
    </filter>

    <!-- Grain (very light, optional) -->
    <filter id="grain" x="-20%" y="-20%" width="140%" height="140%">
      <feTurbulence type="fractalNoise" baseFrequency="0.9" numOctaves="2" stitchTiles="stitch" result="noise"/>
      <feColorMatrix type="matrix" values="
        1 0 0 0 0
        0 1 0 0 0
        0 0 1 0 0
        0 0 0 0.06 0" />
    </filter>

    <!-- Clip for glass card -->
    <clipPath id="cardClip">
      <rect x="210" y="78" width="860" height="170" rx="22" ry="22"/>
    </clipPath>
  </defs>

  <!-- Background -->
  <rect width="1200" height="360" fill="url(#bg)"/>
  <rect width="1200" height="360" filter="url(#grain)" opacity="0.55"/>

  <!-- Sun + glow -->
  <circle cx="150" cy="100" r="54" fill="url(#sun)"/>
  <circle cx="150" cy="100" r="92" fill="#f7b55a" opacity="0.18" filter="url(#haze)"/>

  <!-- Atmospheric haze band -->
  <path d="M0 92 C 260 78, 420 130, 640 110 C 860 90, 980 126, 1200 98 L1200 0 L0 0 Z"
        fill="#ffffff" opacity="0.10" filter="url(#haze)"/>

  <!-- Clouds / wind strokes -->
  <g fill="none" stroke="#87a8c9" stroke-width="2.2" opacity="0.55" stroke-linecap="round">
    <path d="M420 120 C 520 78, 620 160, 720 118"/>
    <path d="M462 150 C 560 112, 660 192, 770 150"/>
    <path d="M820 110 C 900 82, 990 134, 1080 104"/>
  </g>

  <!-- Terrain base -->
  <rect x="0" y="230" width="1200" height="130" fill="url(#sand)"/>

  <!-- Terrain ridges -->
  <path d="M0 230 C 180 190, 360 260, 540 228 C 720 198, 930 270, 1200 232 L1200 360 L0 360 Z"
        fill="url(#ridge)" opacity="0.45"/>
  <path d="M0 248 C 220 220, 380 284, 600 252 C 820 220, 980 290, 1200 250"
        fill="none" stroke="#b9855c" stroke-width="3" opacity="0.28" stroke-linecap="round"/>

  <!-- Small vegetation hints (minimal) -->
  <g opacity="0.25" stroke="#2f855a" stroke-width="3" stroke-linecap="round">
    <path d="M1060 282 l0 -18"/>
    <path d="M1060 270 l-10 8"/>
    <path d="M1060 270 l10 8"/>
    <path d="M1120 290 l0 -14"/>
    <path d="M1120 280 l-8 6"/>
    <path d="M1120 280 l8 6"/>
  </g>

  <!-- Glass card -->
  <g filter="url(#shadow)">
    <rect x="210" y="78" width="860" height="170" rx="22" ry="22" fill="url(#glass)" stroke="#ffffff" stroke-opacity="0.55"/>
    <!-- top highlight -->
    <path d="M232 92 H1048 C1058 92 1066 100 1066 110 V120 H232 Z" opacity="0.22" fill="#ffffff" clip-path="url(#cardClip)"/>
    <!-- accent bar -->
    <rect x="210" y="78" width="860" height="6" rx="22" fill="url(#accent)" opacity="0.9"/>
  </g>

  <!-- Text -->
  <g font-family="ui-serif, Georgia, 'Times New Roman', serif" fill="#23313a">
    <text x="250" y="142" font-size="44" font-weight="700" letter-spacing="0.2">Dry Spell Risk Prediction</text>
    <text x="250" y="178" font-size="20" opacity="0.9">July–Oct • Climate-Driven Machine Learning</text>
  </g>

  <!-- Badges -->
  <g font-family="ui-sans-serif, -apple-system, BlinkMacSystemFont, 'SF Pro Text', 'Segoe UI', Arial, sans-serif" font-size="14" fill="#1f2a33">
    <g>
      <rect x="250" y="198" width="124" height="30" rx="15" fill="#ffffff" opacity="0.62" stroke="#ffffff" stroke-opacity="0.6"/>
      <text x="312" y="218" text-anchor="middle" opacity="0.95">Forecasting</text>
    </g>
    <g>
      <rect x="386" y="198" width="112" height="30" rx="15" fill="#ffffff" opacity="0.62" stroke="#ffffff" stroke-opacity="0.6"/>
      <text x="442" y="218" text-anchor="middle" opacity="0.95">ML System</text>
    </g>
    <g>
      <rect x="510" y="198" width="150" height="30" rx="15" fill="#ffffff" opacity="0.62" stroke="#ffffff" stroke-opacity="0.6"/>
      <text x="585" y="218" text-anchor="middle" opacity="0.95">Risk Insights</text>
    </g>
  </g>

  <!-- Minimal icon (droplet + slash) -->
  <g transform="translate(980 122)" opacity="0.75">
    <path d="M40 0 C40 0, 18 28, 18 44 C18 58, 28 68, 40 68 C52 68, 62 58, 62 44 C62 28, 40 0, 40 0 Z"
          fill="#2b6cb0" opacity="0.22"/>
    <path d="M40 6 C40 6, 24 28, 24 42 C24 52, 31 59, 40 59 C49 59, 56 52, 56 42 C56 28, 40 6, 40 6 Z"
          fill="#2b6cb0" opacity="0.30"/>
    <path d="M12 70 L74 8" stroke="#e07a2f" stroke-width="6" stroke-linecap="round" opacity="0.65"/>
  </g>
</svg>